# xmcd
#
# Track frame offsets: 
#        150
#        12825
#        28604
#        43821
#        59040
#        80067
#        101395
#        105694
#        123886
#        137487
#        156514
#        169836
#        191832
#
# Disc length: 2765 seconds
#
# Revision: 1
# Processed by: cddbd v1.5.2PL0 Copyright (c) Steve Scherf et al.
# Submitted via: ExactAudioCopyFreeDBPlugin 1.0
#
DISCID=b10acb0d
DTITLE=Hermitude - HyperParadise
DYEAR=2012
DGENRE=New Age
TTITLE0=Engage
TTITLE1=Get in my life
TTITLE2=All of you
TTITLE3=Speak of the devil
TTITLE4=The hunt
TTITLE5=Let you go
TTITLE6=Hermitude
TTITLE7=HyperParadise
TTITLE8=The villain
TTITLE9=Sloucho darx
TTITLE10=Golden
TTITLE11=Cloud city
TTITLE12=Flood
EXTD=YEAR: 2012
EXTT0=
EXTT1=
EXTT2=
EXTT3=
EXTT4=
EXTT5=
EXTT6=
EXTT7=
EXTT8=
EXTT9=
EXTT10=
EXTT11=
EXTT12=
PLAYORDER=
